<svg width="1000" height="900" viewBox="0 0 1000 1000" fill="none" xmlns="http://www.w3.org/2000/svg">
<g filter="url(#filter0_d_205_47)">
<path d="M425.065 827.025C532.443 828.375 635.96 787.002 712.842 712.01C789.725 637.018 833.675 534.549 835.024 427.144C835.188 414.128 835.348 401.4 833.483 388.647C827.012 310.445 797.968 235.807 749.882 173.807C701.795 111.807 636.737 65.1152 562.616 39.4071C488.495 13.6989 408.504 10.0821 332.366 28.996C256.228 47.9099 187.223 88.54 133.739 145.947C80.2552 203.355 44.5959 275.067 31.0962 352.366C17.5965 429.665 26.8379 509.222 57.6968 581.365C88.5557 653.509 139.703 715.132 204.921 758.744C270.139 802.356 346.62 826.077 425.065 827.025ZM425.792 769.173C334.351 767.945 247.091 730.667 182.977 665.443L183.34 636.516C297.148 677.298 421.404 678.349 535.886 639.499C544.879 648.489 556.232 654.749 568.632 657.559L575.862 657.65C579.18 669.842 582.208 682.031 584.655 694.502C587.101 706.973 588.409 717.983 589.706 729.861C539.161 756.33 482.84 769.837 425.792 769.173ZM514.683 600.466C409.215 634.324 295.407 631.569 191.701 592.647C206.715 519.333 238.356 450.446 284.184 391.293C296.726 396.792 310.668 398.249 324.075 395.463C337.483 392.676 349.69 385.784 359.004 375.742C369.053 381.654 379.102 387.567 387.694 394.329C445.584 434.023 493.688 486.369 528.366 547.405C522.549 554.437 518.275 562.614 515.823 571.405C513.37 580.196 512.794 589.405 514.13 598.434L514.683 600.466ZM629.052 706.054C629.129 699.979 627.473 693.594 626.393 687.505C623.95 674.744 620.636 662.262 617.322 649.781C628.479 643.36 637.513 633.815 643.311 622.321C649.109 610.827 651.417 597.886 649.951 585.096C695.975 555.853 737.21 519.679 772.201 477.852C764.711 523.533 748.163 567.255 723.53 606.445C698.896 645.635 666.676 679.5 628.763 706.05L629.052 706.054ZM634.762 251.622C646.099 247.973 656.273 241.396 664.255 232.556C672.238 223.716 677.747 212.926 680.227 201.275L698.735 201.507C744.738 257.81 771.803 327.199 776.074 399.787L772.824 405.243C735.905 460.953 687.957 508.5 631.944 544.945C623.725 536.141 613.28 529.722 601.714 526.369C590.147 523.015 577.889 522.85 566.237 525.893C528.377 460.024 476.204 403.506 413.572 360.516C401.813 352.557 389.758 345.172 377.699 338.078C378.81 327.026 377.161 315.872 372.9 305.615C426.352 264.244 487.783 234.382 553.331 217.907C560.729 232.16 572.953 243.319 587.818 249.388C602.684 255.458 619.223 256.043 634.48 251.04L634.762 251.622ZM434.507 75.5205C493.323 76.2434 550.975 92.0065 601.98 121.31L593.861 122.944C582.305 126.576 571.936 133.244 563.835 142.251C555.735 151.258 550.199 162.275 547.807 174.152C473.623 192.085 404.154 225.743 344.099 272.85C330.08 264.417 313.437 261.472 297.377 264.582C281.316 267.692 266.975 276.638 257.115 289.694C216.447 278.572 174.543 272.602 132.387 271.926L117.06 271.733C145.714 212.074 203.04 151.871 259.285 117.005C315.53 82.138 368.349 74.061 434.514 74.9419L434.507 75.5205ZM243.007 330.599C242.883 342.723 246.03 354.656 252.118 365.141C203.2 427.419 168.792 499.83 151.403 577.096C137.028 570.165 122.856 562.465 108.886 553.996C78.0233 478.419 74.7778 394.381 99.7197 316.648C147.78 313.537 196.03 317.951 242.729 329.728L243.007 330.599Z" fill="url(#paint0_linear_205_47)"/>
<path d="M835.224 427.139C835.388 414.13 835.548 401.391 833.682 388.624C827.207 310.386 798.149 235.714 750.04 173.685C701.929 111.654 636.839 64.9389 562.682 39.2181C488.524 13.4972 408.493 9.87863 332.318 28.8019C256.143 47.7251 187.103 88.3754 133.593 145.811C80.0825 203.247 44.4056 274.994 30.8992 352.331C17.3929 429.669 26.6388 509.265 57.5129 581.444C88.387 653.623 139.56 715.277 204.81 758.91C270.061 802.543 346.579 826.277 425.062 827.225C532.494 828.575 636.062 787.183 712.982 712.153C789.902 637.124 833.874 534.604 835.224 427.147L835.224 427.139ZM568.588 657.754L568.609 657.758L568.63 657.759L575.709 657.848C579.01 669.989 582.023 682.126 584.458 694.541C586.894 706.955 588.2 717.922 589.492 729.747C539.008 756.159 482.764 769.636 425.794 768.973C334.434 767.746 247.25 730.512 183.178 665.362L183.537 636.799C297.276 677.489 421.429 678.522 535.832 639.729C544.839 648.697 556.191 654.945 568.588 657.754ZM387.57 394.486L387.57 394.486L387.581 394.494C445.408 434.145 493.466 486.426 528.124 547.384C522.334 554.413 518.078 562.577 515.63 571.351C513.17 580.169 512.592 589.407 513.932 598.463L513.934 598.475L513.937 598.486L514.44 600.334C409.12 634.1 295.493 631.347 191.931 592.519C206.943 519.349 238.524 450.595 284.247 391.538C296.789 397.003 310.719 398.443 324.116 395.659C337.512 392.875 349.713 386.004 359.041 375.996C369.046 381.883 379.03 387.765 387.57 394.486ZM771.884 478.541C764.344 523.935 747.85 567.378 723.36 606.338C698.872 645.297 666.882 678.991 629.254 705.461C629.23 700.981 628.313 696.341 627.418 691.806C627.129 690.347 626.843 688.898 626.59 687.47L626.589 687.467C624.155 674.749 620.855 662.309 617.555 649.877C628.684 643.438 637.697 633.894 643.49 622.411C649.286 610.919 651.605 597.986 650.164 585.198C695.957 556.086 737.008 520.114 771.884 478.541ZM634.582 251.709L634.658 251.865L634.823 251.812C646.194 248.153 656.397 241.557 664.404 232.69C672.374 223.865 677.885 213.101 680.388 201.477L698.639 201.706C744.566 257.948 771.592 327.245 775.871 399.738L772.657 405.133C772.656 405.134 772.655 405.136 772.654 405.137C735.782 460.776 687.904 508.268 631.976 544.686C623.75 535.918 613.317 529.525 601.769 526.176C590.217 522.827 577.977 522.649 566.334 525.661C528.466 459.823 476.3 403.329 413.685 360.351L413.684 360.35C401.956 352.412 389.935 345.046 377.911 337.97C378.994 326.978 377.357 315.889 373.144 305.679C426.503 264.406 487.812 234.603 553.226 218.139C560.654 232.368 572.882 243.506 587.743 249.574C602.598 255.639 619.12 256.244 634.376 251.284L634.582 251.709ZM434.307 75.5179L434.305 75.718L434.505 75.7204C493.109 76.4408 550.558 92.1021 601.419 121.219L593.821 122.748L593.811 122.75L593.801 122.753C582.211 126.396 571.811 133.084 563.687 142.117C555.591 151.12 550.049 162.123 547.636 173.987C473.515 191.924 404.103 225.554 344.084 272.608C330.047 264.204 313.403 261.275 297.339 264.386C281.274 267.497 266.924 276.428 257.037 289.466C216.394 278.362 174.518 272.402 132.39 271.726L117.376 271.537C146.057 212.009 203.263 151.968 259.39 117.174C315.535 82.3704 368.262 74.2776 434.312 75.1393L434.307 75.5179ZM242.572 329.894L242.807 330.629C242.688 342.733 245.821 354.646 251.877 365.124C203.037 427.335 168.666 499.647 151.263 576.807C136.991 569.916 122.919 562.267 109.046 553.859C78.2416 478.384 74.993 394.47 99.8685 316.839C147.826 313.749 195.971 318.154 242.572 329.894Z" stroke="#4CD0FD" stroke-width="0.4"/>
</g>
<defs>
<filter id="filter0_d_205_47" x="0.65625" y="0.655029" width="858.86" height="858.802" filterUnits="userSpaceOnUse" color-interpolation-filters="sRGB">
<feFlood flood-opacity="0" result="BackgroundImageFix"/>
<feColorMatrix in="SourceAlpha" type="matrix" values="0 0 0 0 0 0 0 0 0 0 0 0 0 0 0 0 0 0 127 0" result="hardAlpha"/>
<feOffset dy="8"/>
<feGaussianBlur stdDeviation="12"/>
<feComposite in2="hardAlpha" operator="out"/>
<feColorMatrix type="matrix" values="0 0 0 0 0 0 0 0 0 0 0 0 0 0 0 0 0 0 0.15 0"/>
<feBlend mode="normal" in2="BackgroundImageFix" result="effect1_dropShadow_205_47"/>
<feBlend mode="normal" in="SourceGraphic" in2="effect1_dropShadow_205_47" result="shape"/>
</filter>
<linearGradient id="paint0_linear_205_47" x1="1510.4" y1="1332.3" x2="-432.647" y2="-333.442" gradientUnits="userSpaceOnUse">
<stop stop-color="#20C6FF"/>
<stop offset="1" stop-color="#3EF9A9"/>
<stop offset="1" stop-color="#3EF9A9"/>
</linearGradient>
</defs>
</svg>
